<?xml version="1.0" encoding="UTF-8" standalone="no"?>
<svg
   xmlns:dc="http://purl.org/dc/elements/1.1/"
   xmlns:cc="http://creativecommons.org/ns#"
   xmlns:rdf="http://www.w3.org/1999/02/22-rdf-syntax-ns#"
   xmlns:svg="http://www.w3.org/2000/svg"
   xmlns="http://www.w3.org/2000/svg"
   xmlns:xlink="http://www.w3.org/1999/xlink"
   xmlns:sodipodi="http://sodipodi.sourceforge.net/DTD/sodipodi-0.dtd"
   xmlns:inkscape="http://www.inkscape.org/namespaces/inkscape"
   aria-hidden="true"
   role="img"
   class="iconify iconify--logos"
   width="31.88"
   height="32"
   preserveAspectRatio="xMidYMid meet"
   viewBox="0 0 256 257"
   version="1.1"
   id="svg20"
   sodipodi:docname="vite.svg"
   inkscape:version="0.92.5 (2060ec1f9f, 2020-04-08)">
  <metadata
     id="metadata24">
    <rdf:RDF>
      <cc:Work
         rdf:about="">
        <dc:format>image/svg+xml</dc:format>
        <dc:type
           rdf:resource="http://purl.org/dc/dcmitype/StillImage" />
      </cc:Work>
    </rdf:RDF>
  </metadata>
  <sodipodi:namedview
     pagecolor="#ffffff"
     bordercolor="#666666"
     borderopacity="1"
     objecttolerance="10"
     gridtolerance="10"
     guidetolerance="10"
     inkscape:pageopacity="0"
     inkscape:pageshadow="2"
     inkscape:window-width="1920"
     inkscape:window-height="1043"
     id="namedview22"
     showgrid="false"
     inkscape:zoom="7.375"
     inkscape:cx="15.94"
     inkscape:cy="16"
     inkscape:window-x="0"
     inkscape:window-y="0"
     inkscape:window-maximized="1"
     inkscape:current-layer="svg20" />
  <defs
     id="defs14">
    <linearGradient
       id="IconifyId1813088fe1fbc01fb466"
       x1="-2.0007202"
       x2="139.28904"
       y1="48.343501"
       y2="219.34655"
       gradientTransform="matrix(-1.0592958,0,0,-0.94402338,256.00032,256.3217)"
       gradientUnits="userSpaceOnUse">
      <stop
         offset="0%"
         stop-color="#41D1FF"
         id="stop2" />
      <stop
         offset="100%"
         stop-color="#BD34FE"
         id="stop4" />
    </linearGradient>
    <linearGradient
       id="IconifyId1813088fe1fbc01fb467"
       x1="188.00649"
       x2="199.00609"
       y1="3.5533929"
       y2="141.10861"
       gradientTransform="matrix(-0.32004267,0,0,-0.58344356,186.00568,122.37679)"
       gradientUnits="userSpaceOnUse">
      <stop
         offset="0%"
         stop-color="#FFEA83"
         id="stop7" />
      <stop
         offset="8.333%"
         stop-color="#FFDD35"
         id="stop9" />
      <stop
         offset="100%"
         stop-color="#FFA800"
         id="stop11" />
    </linearGradient>
    <linearGradient
       inkscape:collect="always"
       xlink:href="#IconifyId1813088fe1fbc01fb467"
       id="linearGradient842"
       gradientUnits="userSpaceOnUse"
       gradientTransform="matrix(-0.32004267,0,0,-0.58344356,182.73873,238.89798)"
       x1="188.00649"
       y1="3.5533929"
       x2="199.00609"
       y2="141.10861" />
  </defs>
  <path
     inkscape:connector-curvature="0"
     style="fill:url(#IconifyId1813088fe1fbc01fb466)"
     d="m 0.84732,218.3837 120.256,-215.038 c 2.483,-4.44 8.862,-4.466 11.382,-0.048 l 122.64,215.066 c 2.746,4.814 -1.371,10.646 -6.827,9.67 l -120.385,-21.517 a 6.537,6.537 0 0 0 -2.322,0.004 l -117.867,21.483 c -5.438,0.991 -9.574,-4.796 -6.877,-9.62 z"
     id="path16" />
  <path
     inkscape:connector-curvature="0"
     style="fill:url(#IconifyId1813088fe1fbc01fb467);stroke-width:0.99999988"
     d="m 105.87696,122.3496 38.45517,-7.53524 a 1.4121653,1.4121653 0 0 0 1.13818,-1.30245 l 2.36538,-39.951965 a 1.4121653,1.4121653 0 0 0 -1.72716,-1.45978 l -10.70658,2.470902 c -1.00168,0.2312 -1.90696,-0.65124 -1.70086,-1.658452 l 3.18084,-15.57659 c 0.21392,-1.04834 -0.77002,-1.94457 -1.79371,-1.63346 l -6.61315,2.00892 c -1.02499,0.31116 -2.01022,-0.5876 -1.79332,-1.63687 l 5.05495,-24.46698 c 0.31633,-1.53056 -1.71941,-2.36498 -2.56809,-1.05307 l -0.56737,0.87631 -31.335543,62.536312 c -0.525027,1.047 0.380261,2.24093 1.529704,2.01881 l 11.021189,-2.12684 c 1.03536,-0.19965 1.91645,0.76486 1.62434,1.77777 l -7.19306,24.935353 c -0.29254,1.01549 0.592,1.98045 1.62866,1.77732 z"
     id="path18" />
  <path
     id="path840"
     d="m 102.61001,238.87079 38.45517,-7.53524 a 1.4121653,1.4121653 0 0 0 1.13818,-1.30245 l 2.36538,-39.95197 a 1.4121653,1.4121653 0 0 0 -1.72716,-1.45978 l -10.70658,2.4709 c -1.00168,0.2312 -1.90696,-0.65124 -1.70086,-1.65845 l 3.18084,-15.57659 c 0.21392,-1.04834 -0.77002,-1.94457 -1.79371,-1.63346 l -6.61315,2.00892 c -1.02499,0.31116 -2.01022,-0.5876 -1.79332,-1.63687 l 5.05495,-24.46698 c 0.31633,-1.53056 -1.71941,-2.36498 -2.56809,-1.05307 l -0.56737,0.87631 -31.335542,62.53631 c -0.525027,1.047 0.380261,2.24093 1.529704,2.01881 l 11.021188,-2.12684 c 1.03536,-0.19965 1.91645,0.76486 1.62434,1.77777 l -7.19306,24.93536 c -0.29254,1.01549 0.592,1.98045 1.62866,1.77732 z"
     style="fill:url(#linearGradient842);stroke-width:0.99999988"
     inkscape:connector-curvature="0" />
</svg>
